<svg width="100" height="100" viewBox="0 0 100 100" fill="none" xmlns="http://www.w3.org/2000/svg">
<path d="M25 12.5C25 5.59644 30.5964 0 37.5 0H50V25H37.5C30.5964 25 25 19.4036 25 12.5Z" fill="#F34E1E"/>
<path d="M25 37.5C25 30.5964 30.5964 25 37.5 25C44.4036 25 50 30.5964 50 37.5V50H37.5C30.5964 50 25 44.4036 25 37.5Z" fill="#A259FF"/>
<path d="M50 50H62.5C69.4036 50 75 55.5964 75 62.5C75 69.4036 69.4036 75 62.5 75C55.5964 75 50 69.4036 50 62.5V50Z" fill="#1ABCFD"/>
<path d="M50 75H62.5C69.4036 75 75 80.5964 75 87.5C75 94.4036 69.4036 100 62.5 100H50V75Z" fill="#0BB774"/>
<path d="M25 87.5C25 80.5964 30.5964 75 37.5 75H50V100H37.5C30.5964 100 25 94.4036 25 87.5Z" fill="#0ACE82"/>
<path d="M50 0H62.5C69.4036 0 75 5.59644 75 12.5C75 19.4036 69.4036 25 62.5 25H50V0Z" fill="#FF7261"/>
</svg>
